PathFileType	4	(X/Y/Z)	/Users/niels/Desktop/University/Third Semester/Perception and Action/Exam/Gymnastics Motion Tracking/Code for Gym Tracking/Analyzed Data/Webcam_Backflip/id1_1_baseline_Sports2D/id1_1_baseline_Sports2D_px_person00.trc
DataRate	CameraRate	NumFrames	NumMarkers	Units	OrigDataRate	OrigDataStartFrame	OrigNumFrames
29.872340425531917	29.872340425531917	9	22	m	29.872340425531917	88	235
Frame#	Time	Hip			RHip			RKnee			RAnkle			RBigToe			RSmallToe			RHeel			LHip			LKnee			LAnkle			LBigToe			LSmallToe			LHeel			Neck			Head			Nose			RShoulder			RElbow			RWrist			LShoulder			LElbow			LWrist		
		X1	Y1	Z1	X2	Y2	Z2	X3	Y3	Z3	X4	Y4	Z4	X5	Y5	Z5	X6	Y6	Z6	X7	Y7	Z7	X8	Y8	Z8	X9	Y9	Z9	X10	Y10	Z10	X11	Y11	Z11	X12	Y12	Z12	X13	Y13	Z13	X14	Y14	Z14	X15	Y15	Z15	X16	Y16	Z16	X17	Y17	Z17	X18	Y18	Z18	X19	Y19	Z19	X20	Y20	Z20	X21	Y21	Z21	X22	Y22	Z22
88	2.9458689458689458	0.7071626244890269	-0.6315377869690514	0.0	0.7247518611657664	-0.632546189459858	0.0	0.8083191633577713	-0.7138775761417586	0.0	0.8420825957159188	-0.8285880513505719	0.0	0.8900029257118729	-0.8283307624221056	0.0	0.8876330300472408	-0.8361945580272131	0.0	0.8351637528534789	-0.8434377717897256	0.0	0.6929804833671485	-0.6312001484669929	0.0	0.6839814924237839	-0.7398200775055758	0.0	0.6550197465892965	-0.8524232691417414	0.0	0.6831559669157926	-0.8485837042456794	0.0	0.6727846396956441	-0.8503461910175074	0.0	0.6494349794290794	-0.8642708572134374	0.0	0.7644510219945727	-0.48337731301644543	0.0	0.8230548942586273	-0.4400145628883921	0.0	0.8089418144637408	-0.47940752565981576	0.0	0.7588466102136594	-0.4992230572425439	0.0	0.7270270877171305	-0.5642292025352945	0.0	0.7442189338354668	-0.632597438095516	0.0	0.7313715447361171	-0.48701709181438485	0.0	0.6864197455442108	-0.518073352242851	0.0	0.7217395877764129	-0.5833622733675043	0.0
89	2.9793447293447293	0.7070635345578048	-0.6209241576597543	0.0	0.7252859483251078	-0.6213560867392959	0.0	0.8082189166983669	-0.703002550667116	0.0	0.8428545161030405	-0.8187250613983231	0.0	0.8911644532043252	-0.8181412744017018	0.0	0.8890792055679083	-0.8258912472226817	0.0	0.8355481968467051	-0.8336600545175564	0.0	0.6923297799041344	-0.6203320699758709	0.0	0.6840376108081125	-0.7288315891673822	0.0	0.6555685252936331	-0.8417375048472531	0.0	0.6840269316051468	-0.840257381445551	0.0	0.6746289793888224	-0.8418319461542884	0.0	0.6495416363323474	-0.8539487865359359	0.0	0.7623255741628071	-0.4717396379514423	0.0	0.8211984881786332	-0.4279025853919437	0.0	0.8068363368203103	-0.4677128507836564	0.0	0.7574412495248476	-0.4882219337149897	0.0	0.7246469286519714	-0.5553268816835275	0.0	0.7444730002765069	-0.6247904574164821	0.0	0.7280455021654105	-0.47622768754501626	0.0	0.6814051881832746	-0.5130120094285533	0.0	0.7181658279158716	-0.5727730666229861	0.0
90	3.0128205128205128	0.7094220961386943	-0.6073943843537261	0.0	0.7287479589026269	-0.6072043703006726	0.0	0.8095115040475336	-0.6897741807088125	0.0	0.8441737993280296	-0.8065446942254996	0.0	0.8925908826450006	-0.8067514418063769	0.0	0.8906381649744884	-0.8142619931918371	0.0	0.8364382562368514	-0.8214764274549232	0.0	0.6937597113745645	-0.6065101835513149	0.0	0.6852145246962957	-0.7151949510669428	0.0	0.6566931098350115	-0.8283904636964002	0.0	0.6843185826375536	-0.829812940207293	0.0	0.6753401664604024	-0.8311416353947788	0.0	0.6502728315509422	-0.8411767321993866	0.0	0.7607846536823337	-0.456996047888742	0.0	0.8201410657153734	-0.4123633737631962	0.0	0.8056512215616239	-0.45298064356301104	0.0	0.7571241734453173	-0.47433574406588797	0.0	0.7236722172133194	-0.5419043362135675	0.0	0.7453980627807173	-0.6113436159765864	0.0	0.7251438542691822	-0.4621576903405721	0.0	0.6772023894393739	-0.5027112136079567	0.0	0.7160166217548692	-0.5503493620941533	0.0
91	3.0462962962962963	0.7135502049138279	-0.5924938842550062	0.0	0.7341716811461473	-0.5917159154340756	0.0	0.8120317245325563	-0.6755310274397023	0.0	0.8453943092116665	-0.7931974839132626	0.0	0.893700992208898	-0.7953405110496972	0.0	0.8916872588654774	-0.8024925687507355	0.0	0.8372027067131808	-0.8080679138940704	0.0	0.6968467567659806	-0.5914010376108025	0.0	0.6872061148415732	-0.7003412103047647	0.0	0.6583521629490259	-0.8139507747117911	0.0	0.6842193317260014	-0.8182180828900757	0.0	0.6752333164702318	-0.8192646019588687	0.0	0.6516876207152118	-0.8273325406687545	0.0	0.7598270934914522	-0.4408274009363298	0.0	0.8199737976234954	-0.3952924497169216	0.0	0.8053205871105478	-0.4370266201630615	0.0	0.7575896098426046	-0.4590413639441405	0.0	0.7239656347648009	-0.5260140083047711	0.0	0.7468998111641524	-0.5950760251137812	0.0	0.7228345223365467	-0.44658035631229365	0.0	0.6736725241268776	-0.4894688845848633	0.0	0.7145335227376324	-0.522697575949914	0.0
92	3.07977207977208	0.7186154918149682	-0.5778189299837929	0.0	0.7404590806375575	-0.5765220873845249	0.0	0.8155175244113231	-0.66161094349882	0.0	0.8457319918125339	-0.7799390576359093	0.0	0.8936829515130834	-0.785279722285976	0.0	0.891439243165631	-0.7919502458601491	0.0	0.8370482155988261	-0.7947237408564901	0.0	0.7010105205050753	-0.5766492871765417	0.0	0.6897506076200136	-0.6857024385032559	0.0	0.6605698485433904	-0.7999335313161051	0.0	0.6840104994549269	-0.806725946461988	0.0	0.6747729020356612	-0.8074899600664397	0.0	0.653860096551661	-0.813861062784774	0.0	0.7594453873267287	-0.4248782610067035	0.0	0.8207085600335339	-0.3785518309625191	0.0	0.8057360725869714	-0.421520873074526	0.0	0.7586295861528366	-0.4437632631427913	0.0	0.7254491517896886	-0.5096427356381615	0.0	0.749112594901609	-0.578411163763254	0.0	0.721222472927742	-0.431143404305867	0.0	0.6707431203309885	-0.47553535285254794	0.0	0.7128408481811316	-0.4961686793307322	0.0
93	3.1132478632478633	0.7239083621819079	-0.5647587685042468	0.0	0.7467464487739183	-0.5630538090395737	0.0	0.8196395939897432	-0.649241923926921	0.0	0.8444784065840214	-0.7679968449607395	0.0	0.8916519057248231	-0.7779341982920527	0.0	0.8890931269403158	-0.7839502911647294	0.0	0.8352507785514496	-0.7826559629333381	0.0	0.7056435669166852	-0.5636875133654796	0.0	0.6926634722885199	-0.6726452854363034	0.0	0.6633910631414635	-0.7876387561277384	0.0	0.6838241493992065	-0.7966090075421939	0.0	0.6742273635628963	-0.7971400056008929	0.0	0.6568500255915399	-0.8021094267426641	0.0	0.7595821258062299	-0.410545160738813	0.0	0.8222083772807208	-0.36369880688067224	0.0	0.8067286337766417	-0.40782804653865845	0.0	0.7601465560553936	-0.4297778959695071	0.0	0.7280790610608268	-0.49447797607633254	0.0	0.7523164908442695	-0.5631641716417395	0.0	0.7202519025182798	-0.4172216583370637	0.0	0.6683595603636954	-0.46271707283504626	0.0	0.7098059187934982	-0.47516287092681503	0.0
94	3.146723646723647	0.7289885185926551	-0.5543600499149622	0.0	0.7525442722058864	-0.5524053015379298	0.0	0.8239678208268729	-0.6394958835727058	0.0	0.8412125399854741	-0.7584379717145745	0.0	0.8869510623144279	-0.7743200345856358	0.0	0.8841164916294407	-0.7794349556608455	0.0	0.8313725018704337	-0.772899002344036	0.0	0.7102421050351538	-0.553571108403961	0.0	0.6958695348040639	-0.6623008855566646	0.0	0.6668218530543382	-0.7780049340450145	0.0	0.6836182184804693	-0.7888995008895846	0.0	0.6736676828680345	-0.7892947081066038	0.0	0.660643145874802	-0.7930936966996662	0.0	0.7601284872202182	-0.3988494098332703	0.0	0.824219099643222	-0.35185117188308673	0.0	0.808107133522966	-0.39690036644646337	0.0	0.7620771618664695	-0.41813399076756413	0.0	0.7317537055378143	-0.4818268676105469	0.0	0.7567980936054416	-0.5505698699796412	0.0	0.7197724913790289	-0.4058437812144693	0.0	0.6664595620178924	-0.4522045410062789	0.0	0.704017009797983	-0.46161715928854924	0.0
95	3.1801994301994303	0.7336906562181312	-0.5473240834977275	0.0	0.7576993519551812	-0.5452843604730198	0.0	0.8279570160448236	-0.6332880692504613	0.0	0.835946008669629	-0.7521218656593809	0.0	0.87949795379339	-0.7748025549147833	0.0	0.8765453772344843	-0.7787883720785477	0.0	0.825443579627265	-0.766317114588419	0.0	0.7145120561664584	-0.5468810553630472	0.0	0.699357469380248	-0.6553817278748469	0.0	0.6707459612358901	-0.7715575162561057	0.0	0.6833377900208385	-0.784244246284945	0.0	0.6731445855946477	-0.7846087457782784	0.0	0.6650445934310163	-0.787336793169288	0.0	0.7609749764877755	-0.3904418758873311	0.0	0.8264671326856288	-0.34363121653591916	0.0	0.8097340140739937	-0.38924714149550504	0.0	0.7643345735024593	-0.40965308556052227	0.0	0.7363276863577717	-0.47267733764360803	0.0	0.7627575125983614	-0.5414708340519899	0.0	0.719691989797064	-0.3976941369743369	0.0	0.6649929840156333	-0.4446310288629174	0.0	0.6943253192009304	-0.4556436819967761	0.0
96	3.213675213675214	0.73804076969404	-0.54399589681551	0.0	0.7622844489516112	-0.5419776057774202	0.0	0.8310027118839529	-0.6313264809575125	0.0	0.8291479863160887	-0.7497111637745321	0.0	0.8699778965301034	-0.779036276503397	0.0	0.8671210087424942	-0.7818552022586547	0.0	0.8180348763532094	-0.7636552550105904	0.0	0.7183793556407104	-0.5437242256931392	0.0	0.703037883408185	-0.6521397036657692	0.0	0.6748558092434416	-0.768465544243946	0.0	0.6830220366019067	-0.7828612403147404	0.0	0.6727245913957053	-0.7832546798949819	0.0	0.669616672842288	-0.7848873558439532	0.0	0.762067805384563	-0.3857124170729002	0.0	0.8287217953669019	-0.33917858401352885	0.0	0.8115517308107203	-0.38501767453405683	0.0	0.7668396045483425	-0.40491350740709103	0.0	0.7417065612542469	-0.4677013797839467	0.0	0.7702848194826332	-0.5364062201937839	0.0	0.720023071616751	-0.3931905565625088	0.0	0.6639520143324728	-0.440289506760959	0.0	0.6807493937533524	-0.45627222632321607	0.0
